<svg id="Layer_1" data-name="Layer 1" xmlns="http://www.w3.org/2000/svg" xmlns:xlink="http://www.w3.org/1999/xlink" width="416.31" height="249.66" viewBox="0 0 416.31 249.66"><defs><style>.cls-1{fill:#e6e7e8;}.cls-2{fill:#4d4d4e;}.cls-3{fill:#fff;}.cls-13,.cls-4{fill:none;stroke-miterlimit:10;}.cls-4{stroke:#3c8fc0;}.cls-5{fill:#3c8fc0;}.cls-11,.cls-6{fill:#414042;}.cls-7{fill:url(#radial-gradient);}.cls-8{fill:url(#linear-gradient);}.cls-9{fill:url(#linear-gradient-2);}.cls-10{fill:url(#linear-gradient-3);}.cls-11{font-size:12px;font-family:ProximaNova-Bold, Proxima Nova;font-weight:700;}.cls-12{letter-spacing:-0.01em;}.cls-13{stroke:#fff;stroke-width:0.59px;}.cls-14{font-size:11px;fill:#231f20;font-family:ProximaNova-Regular, Proxima Nova;}</style><radialGradient id="radial-gradient" cx="215.88" cy="98.79" r="6.3" gradientUnits="userSpaceOnUse"><stop offset="0" stop-color="#f9f6ba"/><stop offset="0.09" stop-color="#f9f4b1"/><stop offset="0.23" stop-color="#faee9a"/><stop offset="0.41" stop-color="#fbe573"/><stop offset="0.62" stop-color="#fdd83e"/><stop offset="0.8" stop-color="#ffcb09"/><stop offset="1" stop-color="#f8ac1c"/></radialGradient><linearGradient id="linear-gradient" x1="224.08" y1="103.63" x2="204.93" y2="94.65" gradientUnits="userSpaceOnUse"><stop offset="0" stop-color="#14a5d8"/><stop offset="1" stop-color="#1981c0"/></linearGradient><linearGradient id="linear-gradient-2" x1="214.32" y1="110.27" x2="217.84" y2="110.27" xlink:href="#linear-gradient"/><linearGradient id="linear-gradient-3" x1="205" y1="89.5" x2="208.52" y2="89.5" xlink:href="#linear-gradient"/></defs><rect class="cls-1" x="151.7" y="55.69" width="115.07" height="109.21"/><rect class="cls-2" x="232.88" y="27.23" width="12.09" height="12.09" transform="translate(272.2 -205.65) rotate(90)"/><circle class="cls-3" cx="238.93" cy="33.28" r="3.99"/><rect class="cls-2" x="176.43" y="29.8" width="12.09" height="6.96" transform="translate(149.2 215.75) rotate(-90)"/><rect class="cls-3" x="178.51" y="31.88" width="7.93" height="2.8" transform="translate(149.2 215.75) rotate(-90)"/><rect class="cls-2" x="12.77" y="77.17" width="25.56" height="18.75"/><path class="cls-3" d="M18.8,83.28H32.63a1.64,1.64,0,0,1,1,1.37c0,1-1.45,2.1-1.45,2.1v2.11l-.76,1H20.06l-.88-.88V86.75s-1.49-.91-1.49-2A1.59,1.59,0,0,1,18.8,83.28Z"/><line class="cls-4" x1="50.73" y1="121.43" x2="148.11" y2="121.43"/><polygon class="cls-5" points="51.46 123.92 47.14 121.43 51.46 118.94 51.46 123.92"/><polygon class="cls-5" points="147.38 123.92 151.7 121.43 147.38 118.94 147.38 123.92"/><line class="cls-4" x1="25.66" y1="100.12" x2="25.66" y2="111.4"/><polygon class="cls-5" points="23.16 100.85 25.66 96.53 28.15 100.85 23.16 100.85"/><polygon class="cls-5" points="23.16 110.67 25.66 114.99 28.15 110.67 23.16 110.67"/><line class="cls-4" x1="238.93" y1="52.11" x2="238.93" y2="39.32"/><polygon class="cls-5" points="241.42 51.38 238.93 55.69 236.44 51.38 241.42 51.38"/><path class="cls-6" d="M186.66,104.1V91h-3.47V89h12.23v2H189.8V104.1Z"/><path class="cls-6" d="M199.49,104.1,197.1,100h-1.68v4.14h-3.14V92.65h5.83c2.86,0,4.76,1.51,4.76,3.62a3.31,3.31,0,0,1-2.72,3.28L203,104.1Zm.17-7.79c0-1-.8-1.63-2-1.63h-2.22v3.26h2.22C198.86,97.94,199.66,97.3,199.66,96.31Z"/><path class="cls-6" d="M205.19,104.1V92.65h3.14V104.1Z"/><path class="cls-6" d="M232.28,104.1,227,97.34v6.76h-3.14V92.65H227l5.11,6.52V92.65h3.16V104.1Z"/><path class="cls-7" d="M210.31,98.38A5.72,5.72,0,1,1,216,104.1,5.73,5.73,0,0,1,210.31,98.38Zm4.46.6a2.08,2.08,0,1,0-2.07-2.07A2.08,2.08,0,0,0,214.77,99Z"/><path class="cls-8" d="M208.81,88.6a9.85,9.85,0,0,1,6.43-3.42,9.42,9.42,0,0,1,7.13,2.52,11.43,11.43,0,0,1,3.25,7,16.63,16.63,0,0,1-1,7.54,17.87,17.87,0,0,1-4,6.4,13.67,13.67,0,0,1-6.58,3.77,8.65,8.65,0,0,1-7.34-1.46,10.2,10.2,0,0,1-2.31-2.91,10.64,10.64,0,0,1-1.23-3.42,11.72,11.72,0,0,0,1.64,3.16,10.38,10.38,0,0,0,2.42,2.48,6.55,6.55,0,0,0,3.14,1,9,9,0,0,0,3.31-.35,12.87,12.87,0,0,0,5.59-3.63,16.9,16.9,0,0,0,3.5-5.77,15.26,15.26,0,0,0,.91-6.64,10.09,10.09,0,0,0-2.47-6A7.71,7.71,0,0,0,218.52,87a8.45,8.45,0,0,0-3.25-.76A10.45,10.45,0,0,0,208.81,88.6Z"/><circle class="cls-9" cx="216.08" cy="110.27" r="1.76"/><circle class="cls-10" cx="206.76" cy="89.5" r="1.76"/><text class="cls-11" transform="translate(186.98 131.44)">T8 FP<tspan class="cls-12" x="31.69" y="0">G</tspan><tspan x="40.25" y="0">A</tspan></text><path class="cls-6" d="M198.66,90a1,1,0,1,1-1-1A1,1,0,0,1,198.66,90Zm-1.8,0a.77.77,0,0,0,.78.8.76.76,0,0,0,.76-.79.77.77,0,1,0-1.54,0Zm.61.52h-.23v-1a3.1,3.1,0,0,1,.39,0,.52.52,0,0,1,.34.08.24.24,0,0,1,.1.21.27.27,0,0,1-.2.24h0c.09,0,.14.11.17.25a.67.67,0,0,0,.08.24h-.25a.71.71,0,0,1-.08-.24c0-.11-.08-.16-.21-.16h-.11Zm0-.56h.11c.13,0,.23,0,.23-.15s-.06-.15-.21-.15h-.13Z"/><line class="cls-4" x1="182.48" y1="55.69" x2="182.48" y2="42.96"/><polygon class="cls-5" points="184.97 43.69 182.48 39.38 179.98 43.69 184.97 43.69"/><rect class="cls-1" x="2.7" y="110.72" width="44.44" height="51.96"/><line class="cls-4" x1="129.13" y1="49.77" x2="129.13" y2="117.18"/><polygon class="cls-5" points="126.63 50.5 129.13 46.19 131.62 50.5 126.63 50.5"/><polygon class="cls-5" points="126.63 116.45 129.13 120.76 131.62 116.45 126.63 116.45"/><line class="cls-4" x1="314.02" y1="146.66" x2="314.02" y2="180.49"/><polygon class="cls-5" points="311.53 147.39 314.02 143.08 316.51 147.39 311.53 147.39"/><polygon class="cls-5" points="311.53 179.76 314.02 184.08 316.51 179.76 311.53 179.76"/><line class="cls-4" x1="223.93" y1="168.49" x2="223.93" y2="179.91"/><polygon class="cls-5" points="221.44 169.22 223.93 164.9 226.42 169.22 221.44 169.22"/><polygon class="cls-5" points="221.44 179.18 223.93 183.5 226.42 179.18 221.44 179.18"/><line class="cls-4" x1="50.73" y1="139.32" x2="148.11" y2="139.32"/><polygon class="cls-5" points="51.46 141.82 47.14 139.32 51.46 136.83 51.46 141.82"/><polygon class="cls-5" points="147.38 141.82 151.7 139.32 147.38 136.83 147.38 141.82"/><rect class="cls-1" x="106.25" y="12.17" width="45.45" height="33.48"/><line class="cls-4" x1="50.73" y1="157.58" x2="148.11" y2="157.58"/><polygon class="cls-5" points="51.46 160.08 47.14 157.58 51.46 155.09 51.46 160.08"/><polygon class="cls-5" points="147.38 160.08 151.7 157.58 147.38 155.09 147.38 160.08"/><circle class="cls-2" cx="167" cy="189.12" r="6.05"/><path class="cls-13" d="M163.33,189.14c0-2.89,3.69-2.78,3.69,0a1.84,1.84,0,1,0,3.65,0"/><line class="cls-4" x1="167" y1="183.02" x2="167" y2="168.49"/><polygon class="cls-5" points="169.49 169.22 167 164.9 164.51 169.22 169.49 169.22"/><line class="cls-4" x1="415.81" y1="111.76" x2="405.4" y2="111.76"/><polygon class="cls-5" points="406.13 109.27 401.81 111.76 406.13 114.26 406.13 109.27"/><polyline class="cls-4" points="405.4 77.94 415.81 77.94 415.81 249.16 24.92 249.16 24.92 162.68"/><polygon class="cls-5" points="406.13 80.43 401.81 77.94 406.13 75.45 406.13 80.43"/><rect class="cls-1" x="326.89" y="67.76" width="74.92" height="21.11"/><line class="cls-4" x1="323.3" y1="77.81" x2="270.36" y2="77.81"/><polygon class="cls-5" points="322.57 75.32 326.88 77.81 322.57 80.3 322.57 75.32"/><polygon class="cls-5" points="271.09 75.32 266.77 77.81 271.09 80.3 271.09 75.32"/><line class="cls-4" x1="290.62" y1="83.84" x2="301.15" y2="71.77"/><rect class="cls-1" x="326.89" y="132.72" width="74.92" height="20.09"/><line class="cls-4" x1="323.3" y1="142.76" x2="270.36" y2="142.76"/><polygon class="cls-5" points="322.57 140.27 326.88 142.76 322.57 145.26 322.57 140.27"/><polygon class="cls-5" points="271.09 140.27 266.77 142.76 271.09 145.26 271.09 140.27"/><line class="cls-4" x1="290.62" y1="148.8" x2="301.15" y2="136.73"/><rect class="cls-1" x="326.89" y="100.67" width="74.92" height="20.09"/><line class="cls-4" x1="323.3" y1="110.72" x2="270.36" y2="110.72"/><polygon class="cls-5" points="322.57 108.22 326.88 110.72 322.57 113.21 322.57 108.22"/><polygon class="cls-5" points="271.09 108.22 266.77 110.72 271.09 113.21 271.09 108.22"/><line class="cls-4" x1="290.62" y1="116.75" x2="301.15" y2="104.68"/><path class="cls-2" d="M219.46,195.56c0,.63-.13,1.07-.42,1.15a.4.4,0,0,1-.21,0h-.67V183.5h12.72v13.24h-1a7.08,7.08,0,0,1-1,0c-.41-.2-.36-.54-.36-1.14Z"/><text class="cls-14" transform="translate(222.95 9.17)">2 User<tspan x="-14.03" y="13">Pushbuttons</tspan></text><text class="cls-14" transform="translate(166.67 9.17)">4 User<tspan x="3.57" y="13">LEDs</tspan></text><text class="cls-14" transform="translate(0 58.17)">Micro-USB<tspan x="0.22" y="13">Connector</tspan></text><text class="cls-14" transform="translate(14.23 135.44)">FTDI<tspan x="0.79" y="13">USB</tspan></text><text class="cls-14" transform="translate(117.01 27.03)">NOR<tspan x="-1.31" y="13">Flash</tspan></text><text class="cls-14" transform="translate(59.8 117.8)">SPI Interface</text><text class="cls-14" transform="translate(33.62 243.69)">VCCIO Control</text><text class="cls-14" transform="translate(58.79 135.95)">JTAG Interface</text><text class="cls-14" transform="translate(58.79 154.22)">UART Interface</text><text class="cls-14" transform="translate(141.1 209.94)">33.33 MHz<tspan x="3.23" y="13">Oscillator</tspan></text><text class="cls-14" transform="translate(207.83 209.94)">SD Card<tspan x="10.87" y="13">Slot</tspan></text><text class="cls-14" transform="translate(332.27 82.28)">GPIO Header</text><text class="cls-14" transform="translate(297.46 152.81)">9</text><text class="cls-14" transform="translate(332.48 145.95)">GPIO Header</text><text class="cls-14" transform="translate(296.02 123.72)">17</text><text class="cls-14" transform="translate(332.48 114.22)">GPIO Header</text><text class="cls-14" transform="translate(295.6 90.76)">15</text><text class="cls-14" transform="translate(296 209.94)">1 PMOD<tspan x="-8.68" y="13">Compatible</tspan><tspan x="-11.71" y="26">GPIO Socket</tspan></text><rect class="cls-2" x="307.97" y="174.28" width="12.09" height="31.68" transform="translate(504.14 -123.9) rotate(90)"/><rect class="cls-3" x="324.61" y="186.31" width="2.82" height="2.8" transform="translate(513.73 -138.3) rotate(90)"/><rect class="cls-3" x="324.61" y="191.14" width="2.82" height="2.8" transform="translate(518.55 -133.48) rotate(90)"/><rect class="cls-3" x="319.81" y="186.31" width="2.82" height="2.8" transform="translate(508.93 -133.5) rotate(90)"/><rect class="cls-3" x="319.81" y="191.14" width="2.82" height="2.8" transform="translate(513.75 -128.68) rotate(90)"/><rect class="cls-3" x="315.01" y="186.31" width="2.82" height="2.8" transform="translate(504.13 -128.71) rotate(90)"/><rect class="cls-3" x="315.01" y="191.14" width="2.82" height="2.8" transform="translate(508.95 -123.88) rotate(90)"/><rect class="cls-3" x="310.21" y="186.31" width="2.82" height="2.8" transform="translate(499.33 -123.91) rotate(90)"/><rect class="cls-3" x="310.21" y="191.14" width="2.82" height="2.8" transform="translate(504.16 -119.08) rotate(90)"/><rect class="cls-3" x="305.41" y="186.31" width="2.82" height="2.8" transform="translate(494.53 -119.11) rotate(90)"/><rect class="cls-3" x="305.41" y="191.14" width="2.82" height="2.8" transform="translate(499.36 -114.29) rotate(90)"/><rect class="cls-3" x="300.61" y="186.31" width="2.82" height="2.8" transform="translate(489.74 -114.31) rotate(90)"/><rect class="cls-3" x="300.61" y="191.14" width="2.82" height="2.8" transform="translate(494.56 -109.49) rotate(90)"/></svg>